<svg xmlns="http://www.w3.org/2000/svg" xmlns:xlink="http://www.w3.org/1999/xlink" contentStyleType="text/css" data-diagram-type="CLASS" height="820px" preserveAspectRatio="none" style="width:4668px;height:820px;background:#1B1B1B;" version="1.1" viewBox="0 0 4668 820" width="4668px" zoomAndPan="magnify"><title>ECS, Protocol, and Network Overview</title><defs/><g><rect fill="#1B1B1B" height="820" style="stroke:#FFFFFF00;stroke-width:1;" width="4668" x="0" y="0"/><text fill="#FFFFFF" font-family="sans-serif" font-size="14" font-weight="bold" lengthAdjust="spacing" textLength="295.75" x="2179.5307" y="22.9951">ECS, Protocol, and Network Overview</text><!--class Registry--><g id="elem_Registry"><rect codeLine="9" fill="#313139" height="80.5938" id="Registry" rx="2.5" ry="2.5" style="stroke:#E7E7E7;stroke-width:0.5;" width="208.0068" x="2561.06" y="324.1169"/><ellipse cx="2631.8427" cy="340.1169" fill="#2E5233" rx="11" ry="11" style="stroke:#E7E7E7;stroke-width:1;"/><path d="M2634.8115,345.7575 Q2634.2333,346.0544 2633.5927,346.195 Q2632.9521,346.3512 2632.249,346.3512 Q2629.749,346.3512 2628.4208,344.7106 Q2627.1083,343.0544 2627.1083,339.9294 Q2627.1083,336.8044 2628.4208,335.1481 Q2629.749,333.4919 2632.249,333.4919 Q2632.9521,333.4919 2633.5927,333.6481 Q2634.249,333.8044 2634.8115,334.1012 L2634.8115,336.82 Q2634.1865,336.2419 2633.5927,335.9762 Q2632.999,335.695 2632.374,335.695 Q2631.0302,335.695 2630.3427,336.7731 Q2629.6552,337.8356 2629.6552,339.9294 Q2629.6552,342.0231 2630.3427,343.1012 Q2631.0302,344.1637 2632.374,344.1637 Q2632.999,344.1637 2633.5927,343.8981 Q2634.1865,343.6169 2634.8115,343.0387 L2634.8115,345.7575 Z " fill="#FFFFFF"/><text fill="#FFFFFF" font-family="sans-serif" font-size="14" lengthAdjust="spacing" textLength="57.9414" x="2652.3427" y="344.9636">Registry</text><line style="stroke:#E7E7E7;stroke-width:0.5;" x1="2562.06" x2="2768.0668" y1="356.1169" y2="356.1169"/><line style="stroke:#E7E7E7;stroke-width:1;" x1="2562.06" x2="2768.0668" y1="364.1169" y2="364.1169"/><text fill="#FFFFFF" font-family="sans-serif" font-size="14" lengthAdjust="spacing" textLength="196.0068" x="2567.06" y="381.112">".. manages all components</text><text fill="#FFFFFF" font-family="sans-serif" font-size="14" lengthAdjust="spacing" textLength="108.4863" x="2567.06" y="397.4089">and systems .."</text></g><!--class SparseArrayT--><g id="elem_SparseArrayT"><rect codeLine="14" fill="#313139" height="80.5938" id="SparseArrayT" rx="2.5" ry="2.5" style="stroke:#E7E7E7;stroke-width:0.5;" width="225.876" x="1841.13" y="651.5269"/><ellipse cx="1901.1686" cy="667.5269" fill="#2E5233" rx="11" ry="11" style="stroke:#E7E7E7;stroke-width:1;"/><path d="M1904.1373,673.1675 Q1903.5592,673.4644 1902.9186,673.605 Q1902.2779,673.7612 1901.5748,673.7612 Q1899.0748,673.7612 1897.7467,672.1206 Q1896.4342,670.4644 1896.4342,667.3394 Q1896.4342,664.2144 1897.7467,662.5581 Q1899.0748,660.9019 1901.5748,660.9019 Q1902.2779,660.9019 1902.9186,661.0581 Q1903.5748,661.2144 1904.1373,661.5112 L1904.1373,664.23 Q1903.5123,663.6519 1902.9186,663.3862 Q1902.3248,663.105 1901.6998,663.105 Q1900.3561,663.105 1899.6686,664.1831 Q1898.9811,665.2456 1898.9811,667.3394 Q1898.9811,669.4331 1899.6686,670.5112 Q1900.3561,671.5737 1901.6998,671.5737 Q1902.3248,671.5737 1902.9186,671.3081 Q1903.5123,671.0269 1904.1373,670.4487 L1904.1373,673.1675 Z " fill="#FFFFFF"/><text fill="#FFFFFF" font-family="sans-serif" font-size="14" lengthAdjust="spacing" textLength="85.9688" x="1921.6686" y="672.3736">SparseArray</text><rect fill="#FFFFFF" height="15.9688" style="stroke:#E7E7E7;stroke-width:1;stroke-dasharray:2.0,2.0;" width="9.3301" x="2060.6759" y="648.5269"/><text fill="#000000" font-family="sans-serif" font-size="12" font-style="italic" lengthAdjust="spacing" textLength="7.3301" x="2061.6759" y="660.6655">T</text><line style="stroke:#E7E7E7;stroke-width:0.5;" x1="1842.13" x2="2066.006" y1="683.5269" y2="683.5269"/><text fill="#FFFFFF" font-family="sans-serif" font-size="14" lengthAdjust="spacing" textLength="5.0518" x="1847.13" y="700.522">-</text><text fill="#FFFFFF" font-family="sans-serif" font-size="14" lengthAdjust="spacing" textLength="213.876" x="1847.13" y="716.8189">".. T = any component type .."</text><line style="stroke:#E7E7E7;stroke-width:0.5;" x1="1842.13" x2="2066.006" y1="724.1206" y2="724.1206"/></g><!--class RenderText--><g id="elem_RenderText"><rect codeLine="25" fill="#313139" height="113.1875" id="RenderText" rx="2.5" ry="2.5" style="stroke:#E7E7E7;stroke-width:0.5;" width="139.6816" x="913.23" y="307.8169"/><ellipse cx="940.0526" cy="323.8169" fill="#2E5233" rx="11" ry="11" style="stroke:#E7E7E7;stroke-width:1;"/><path d="M943.0214,329.4575 Q942.4432,329.7544 941.8026,329.895 Q941.162,330.0512 940.4589,330.0512 Q937.9589,330.0512 936.6307,328.4106 Q935.3182,326.7544 935.3182,323.6294 Q935.3182,320.5044 936.6307,318.8481 Q937.9589,317.1919 940.4589,317.1919 Q941.162,317.1919 941.8026,317.3481 Q942.4589,317.5044 943.0214,317.8012 L943.0214,320.52 Q942.3964,319.9419 941.8026,319.6762 Q941.2089,319.395 940.5839,319.395 Q939.2401,319.395 938.5526,320.4731 Q937.8651,321.5356 937.8651,323.6294 Q937.8651,325.7231 938.5526,326.8012 Q939.2401,327.8637 940.5839,327.8637 Q941.2089,327.8637 941.8026,327.5981 Q942.3964,327.3169 943.0214,326.7387 L943.0214,329.4575 Z " fill="#FFFFFF"/><text fill="#FFFFFF" font-family="sans-serif" font-size="14" lengthAdjust="spacing" textLength="81.4092" x="956.6799" y="328.6636">RenderText</text><line style="stroke:#E7E7E7;stroke-width:0.5;" x1="914.23" x2="1051.9116" y1="339.8169" y2="339.8169"/><text fill="#FFFFFF" font-family="sans-serif" font-size="14" lengthAdjust="spacing" textLength="5.0518" x="919.23" y="356.812">-</text><text fill="#FFFFFF" font-family="sans-serif" font-size="14" lengthAdjust="spacing" textLength="119.2256" x="919.23" y="373.1089">"text : std::string</text><text fill="#FFFFFF" font-family="sans-serif" font-size="14" lengthAdjust="spacing" textLength="88.4639" x="919.23" y="389.4057">fontSize : int</text><text fill="#FFFFFF" font-family="sans-serif" font-size="14" lengthAdjust="spacing" textLength="127.6816" x="919.23" y="405.7026">isDrawable : bool"</text><line style="stroke:#E7E7E7;stroke-width:0.5;" x1="914.23" x2="1051.9116" y1="413.0044" y2="413.0044"/></g><!--class ColorText--><g id="elem_ColorText"><rect codeLine="30" fill="#313139" height="64.2969" id="ColorText" rx="2.5" ry="2.5" style="stroke:#E7E7E7;stroke-width:0.5;" width="114.5732" x="1087.78" y="332.2669"/><ellipse cx="1109.5669" cy="348.2669" fill="#2E5233" rx="11" ry="11" style="stroke:#E7E7E7;stroke-width:1;"/><path d="M1112.5357,353.9075 Q1111.9575,354.2044 1111.3169,354.345 Q1110.6763,354.5012 1109.9732,354.5012 Q1107.4732,354.5012 1106.145,352.8606 Q1104.8325,351.2044 1104.8325,348.0794 Q1104.8325,344.9544 1106.145,343.2981 Q1107.4732,341.6419 1109.9732,341.6419 Q1110.6763,341.6419 1111.3169,341.7981 Q1111.9732,341.9544 1112.5357,342.2512 L1112.5357,344.97 Q1111.9107,344.3919 1111.3169,344.1262 Q1110.7232,343.845 1110.0982,343.845 Q1108.7544,343.845 1108.0669,344.9231 Q1107.3794,345.9856 1107.3794,348.0794 Q1107.3794,350.1731 1108.0669,351.2512 Q1108.7544,352.3137 1110.0982,352.3137 Q1110.7232,352.3137 1111.3169,352.0481 Q1111.9107,351.7669 1112.5357,351.1887 L1112.5357,353.9075 Z " fill="#FFFFFF"/><text fill="#FFFFFF" font-family="sans-serif" font-size="14" lengthAdjust="spacing" textLength="67.4912" x="1125.0751" y="353.1136">ColorText</text><line style="stroke:#E7E7E7;stroke-width:0.5;" x1="1088.78" x2="1201.3532" y1="364.2669" y2="364.2669"/><text fill="#FFFFFF" font-family="sans-serif" font-size="14" lengthAdjust="spacing" textLength="102.5732" x="1093.78" y="381.262">-"color : Color"</text><line style="stroke:#E7E7E7;stroke-width:0.5;" x1="1088.78" x2="1201.3532" y1="388.5637" y2="388.5637"/></g><!--class MouseOverTextSound--><g id="elem_MouseOverTextSound"><rect codeLine="34" fill="#313139" height="96.8906" id="MouseOverTextSound" rx="2.5" ry="2.5" style="stroke:#E7E7E7;stroke-width:0.5;" width="253.5" x="1237.32" y="315.9669"/><ellipse cx="1282.7585" cy="331.9669" fill="#2E5233" rx="11" ry="11" style="stroke:#E7E7E7;stroke-width:1;"/><path d="M1285.7272,337.6075 Q1285.1491,337.9044 1284.5085,338.045 Q1283.8679,338.2012 1283.1647,338.2012 Q1280.6647,338.2012 1279.3366,336.5606 Q1278.0241,334.9044 1278.0241,331.7794 Q1278.0241,328.6544 1279.3366,326.9981 Q1280.6647,325.3419 1283.1647,325.3419 Q1283.8679,325.3419 1284.5085,325.4981 Q1285.1647,325.6544 1285.7272,325.9512 L1285.7272,328.67 Q1285.1022,328.0919 1284.5085,327.8262 Q1283.9147,327.545 1283.2897,327.545 Q1281.946,327.545 1281.2585,328.6231 Q1280.571,329.6856 1280.571,331.7794 Q1280.571,333.8731 1281.2585,334.9512 Q1281.946,336.0137 1283.2897,336.0137 Q1283.9147,336.0137 1284.5085,335.7481 Q1285.1022,335.4669 1285.7272,334.8887 L1285.7272,337.6075 Z " fill="#FFFFFF"/><text fill="#FFFFFF" font-family="sans-serif" font-size="14" lengthAdjust="spacing" textLength="154.123" x="1303.2585" y="336.8136">MouseOverTextSound</text><line style="stroke:#E7E7E7;stroke-width:0.5;" x1="1238.32" x2="1489.82" y1="347.9669" y2="347.9669"/><line style="stroke:#E7E7E7;stroke-width:0.5;" x1="1238.32" x2="1489.82" y1="355.9669" y2="355.9669"/><text fill="#FFFFFF" font-family="sans-serif" font-size="14" lengthAdjust="spacing" textLength="132.7061" x="1243.32" y="372.962">-"isActivated : bool</text><text fill="#FFFFFF" font-family="sans-serif" font-size="14" lengthAdjust="spacing" textLength="241.5" x="1243.32" y="389.2589">callback : std::function&lt;void(int)&gt;</text><text fill="#FFFFFF" font-family="sans-serif" font-size="14" lengthAdjust="spacing" textLength="95.71" x="1243.32" y="405.5557">soundID : int"</text></g><!--class ClickableText--><g id="elem_ClickableText"><rect codeLine="38" fill="#313139" height="64.2969" id="ClickableText" rx="2.5" ry="2.5" style="stroke:#E7E7E7;stroke-width:0.5;" width="322.0371" x="1526.05" y="332.2669"/><ellipse cx="1635.6848" cy="348.2669" fill="#2E5233" rx="11" ry="11" style="stroke:#E7E7E7;stroke-width:1;"/><path d="M1638.6535,353.9075 Q1638.0754,354.2044 1637.4348,354.345 Q1636.7941,354.5012 1636.091,354.5012 Q1633.591,354.5012 1632.2629,352.8606 Q1630.9504,351.2044 1630.9504,348.0794 Q1630.9504,344.9544 1632.2629,343.2981 Q1633.591,341.6419 1636.091,341.6419 Q1636.7941,341.6419 1637.4348,341.7981 Q1638.091,341.9544 1638.6535,342.2512 L1638.6535,344.97 Q1638.0285,344.3919 1637.4348,344.1262 Q1636.841,343.845 1636.216,343.845 Q1634.8723,343.845 1634.1848,344.9231 Q1633.4973,345.9856 1633.4973,348.0794 Q1633.4973,350.1731 1634.1848,351.2512 Q1634.8723,352.3137 1636.216,352.3137 Q1636.841,352.3137 1637.4348,352.0481 Q1638.0285,351.7669 1638.6535,351.1887 L1638.6535,353.9075 Z " fill="#FFFFFF"/><text fill="#FFFFFF" font-family="sans-serif" font-size="14" lengthAdjust="spacing" textLength="94.2676" x="1656.1848" y="353.1136">ClickableText</text><line style="stroke:#E7E7E7;stroke-width:0.5;" x1="1527.05" x2="1847.0871" y1="364.2669" y2="364.2669"/><line style="stroke:#E7E7E7;stroke-width:0.5;" x1="1527.05" x2="1847.0871" y1="372.2669" y2="372.2669"/><text fill="#FFFFFF" font-family="sans-serif" font-size="14" lengthAdjust="spacing" textLength="310.0371" x="1532.05" y="389.262">-"callback : std::function&lt;void(Registry&amp;)&gt;"</text></g><!--class MouseOverText--><g id="elem_MouseOverText"><rect codeLine="42" fill="#313139" height="64.2969" id="MouseOverText" rx="2.5" ry="2.5" style="stroke:#E7E7E7;stroke-width:0.5;" width="142.0381" x="1883.05" y="332.2669"/><ellipse cx="1898.05" cy="348.2669" fill="#2E5233" rx="11" ry="11" style="stroke:#E7E7E7;stroke-width:1;"/><path d="M1901.0188,353.9075 Q1900.4406,354.2044 1899.8,354.345 Q1899.1594,354.5012 1898.4563,354.5012 Q1895.9563,354.5012 1894.6281,352.8606 Q1893.3156,351.2044 1893.3156,348.0794 Q1893.3156,344.9544 1894.6281,343.2981 Q1895.9563,341.6419 1898.4563,341.6419 Q1899.1594,341.6419 1899.8,341.7981 Q1900.4563,341.9544 1901.0188,342.2512 L1901.0188,344.97 Q1900.3938,344.3919 1899.8,344.1262 Q1899.2063,343.845 1898.5813,343.845 Q1897.2375,343.845 1896.55,344.9231 Q1895.8625,345.9856 1895.8625,348.0794 Q1895.8625,350.1731 1896.55,351.2512 Q1897.2375,352.3137 1898.5813,352.3137 Q1899.2063,352.3137 1899.8,352.0481 Q1900.3938,351.7669 1901.0188,351.1887 L1901.0188,353.9075 Z " fill="#FFFFFF"/><text fill="#FFFFFF" font-family="sans-serif" font-size="14" lengthAdjust="spacing" textLength="110.0381" x="1912.05" y="353.1136">MouseOverText</text><line style="stroke:#E7E7E7;stroke-width:0.5;" x1="1884.05" x2="2024.0881" y1="364.2669" y2="364.2669"/><text fill="#FFFFFF" font-family="sans-serif" font-size="14" lengthAdjust="spacing" textLength="106.3125" x="1889.05" y="381.262">-"isOver : bool"</text><line style="stroke:#E7E7E7;stroke-width:0.5;" x1="1884.05" x2="2024.0881" y1="388.5637" y2="388.5637"/></g><!--class ColorOverText--><g id="elem_ColorOverText"><rect codeLine="46" fill="#313139" height="80.5938" id="ColorOverText" rx="2.5" ry="2.5" style="stroke:#E7E7E7;stroke-width:0.5;" width="154.4199" x="2371.86" y="324.1169"/><ellipse cx="2396.4247" cy="340.1169" fill="#2E5233" rx="11" ry="11" style="stroke:#E7E7E7;stroke-width:1;"/><path d="M2399.3934,345.7575 Q2398.8153,346.0544 2398.1747,346.195 Q2397.5341,346.3512 2396.8309,346.3512 Q2394.3309,346.3512 2393.0028,344.7106 Q2391.6903,343.0544 2391.6903,339.9294 Q2391.6903,336.8044 2393.0028,335.1481 Q2394.3309,333.4919 2396.8309,333.4919 Q2397.5341,333.4919 2398.1747,333.6481 Q2398.8309,333.8044 2399.3934,334.1012 L2399.3934,336.82 Q2398.7684,336.2419 2398.1747,335.9762 Q2397.5809,335.695 2396.9559,335.695 Q2395.6122,335.695 2394.9247,336.7731 Q2394.2372,337.8356 2394.2372,339.9294 Q2394.2372,342.0231 2394.9247,343.1012 Q2395.6122,344.1637 2396.9559,344.1637 Q2397.5809,344.1637 2398.1747,343.8981 Q2398.7684,343.6169 2399.3934,343.0387 L2399.3934,345.7575 Z " fill="#FFFFFF"/><text fill="#FFFFFF" font-family="sans-serif" font-size="14" lengthAdjust="spacing" textLength="101.165" x="2412.5502" y="344.9636">ColorOverText</text><line style="stroke:#E7E7E7;stroke-width:0.5;" x1="2372.86" x2="2525.2799" y1="356.1169" y2="356.1169"/><text fill="#FFFFFF" font-family="sans-serif" font-size="14" lengthAdjust="spacing" textLength="127.1484" x="2377.86" y="373.112">-"newColor : Color</text><text fill="#FFFFFF" font-family="sans-serif" font-size="14" lengthAdjust="spacing" textLength="142.4199" x="2377.86" y="389.4089">defaultColor : Color"</text><line style="stroke:#E7E7E7;stroke-width:0.5;" x1="2372.86" x2="2525.2799" y1="396.7106" y2="396.7106"/></g><!--class Rect--><g id="elem_Rect"><rect codeLine="50" fill="#313139" height="96.8906" id="Rect" rx="2.5" ry="2.5" style="stroke:#E7E7E7;stroke-width:0.5;" width="108.1338" x="7" y="315.9669"/><ellipse cx="42.0729" cy="331.9669" fill="#2E5233" rx="11" ry="11" style="stroke:#E7E7E7;stroke-width:1;"/><path d="M45.0417,337.6075 Q44.4635,337.9044 43.8229,338.045 Q43.1823,338.2012 42.4792,338.2012 Q39.9792,338.2012 38.651,336.5606 Q37.3385,334.9044 37.3385,331.7794 Q37.3385,328.6544 38.651,326.9981 Q39.9792,325.3419 42.4792,325.3419 Q43.1823,325.3419 43.8229,325.4981 Q44.4792,325.6544 45.0417,325.9512 L45.0417,328.67 Q44.4167,328.0919 43.8229,327.8262 Q43.2292,327.545 42.6042,327.545 Q41.2604,327.545 40.5729,328.6231 Q39.8854,329.6856 39.8854,331.7794 Q39.8854,333.8731 40.5729,334.9512 Q41.2604,336.0137 42.6042,336.0137 Q43.2292,336.0137 43.8229,335.7481 Q44.4167,335.4669 45.0417,334.8887 L45.0417,337.6075 Z " fill="#FFFFFF"/><text fill="#FFFFFF" font-family="sans-serif" font-size="14" lengthAdjust="spacing" textLength="31.5273" x="60.5335" y="336.8136">Rect</text><line style="stroke:#E7E7E7;stroke-width:0.5;" x1="8" x2="114.1338" y1="347.9669" y2="347.9669"/><text fill="#FFFFFF" font-family="sans-serif" font-size="14" lengthAdjust="spacing" textLength="96.1338" x="13" y="364.962">-"color : Color</text><text fill="#FFFFFF" font-family="sans-serif" font-size="14" lengthAdjust="spacing" textLength="70.458" x="13" y="381.2589">width : int</text><text fill="#FFFFFF" font-family="sans-serif" font-size="14" lengthAdjust="spacing" textLength="82.9336" x="13" y="397.5557">height : int"</text><line style="stroke:#E7E7E7;stroke-width:0.5;" x1="8" x2="114.1338" y1="404.8575" y2="404.8575"/></g><!--class Input--><g id="elem_Input"><rect codeLine="54" fill="#313139" height="64.2969" id="Input" rx="2.5" ry="2.5" style="stroke:#E7E7E7;stroke-width:0.5;" width="212.2246" x="149.95" y="332.2669"/><ellipse cx="233.6868" cy="348.2669" fill="#2E5233" rx="11" ry="11" style="stroke:#E7E7E7;stroke-width:1;"/><path d="M236.6556,353.9075 Q236.0774,354.2044 235.4368,354.345 Q234.7962,354.5012 234.0931,354.5012 Q231.5931,354.5012 230.2649,352.8606 Q228.9524,351.2044 228.9524,348.0794 Q228.9524,344.9544 230.2649,343.2981 Q231.5931,341.6419 234.0931,341.6419 Q234.7962,341.6419 235.4368,341.7981 Q236.0931,341.9544 236.6556,342.2512 L236.6556,344.97 Q236.0306,344.3919 235.4368,344.1262 Q234.8431,343.845 234.2181,343.845 Q232.8743,343.845 232.1868,344.9231 Q231.4993,345.9856 231.4993,348.0794 Q231.4993,350.1731 232.1868,351.2512 Q232.8743,352.3137 234.2181,352.3137 Q234.8431,352.3137 235.4368,352.0481 Q236.0306,351.7669 236.6556,351.1887 L236.6556,353.9075 Z " fill="#FFFFFF"/><text fill="#FFFFFF" font-family="sans-serif" font-size="14" lengthAdjust="spacing" textLength="36.251" x="254.1868" y="353.1136">Input</text><line style="stroke:#E7E7E7;stroke-width:0.5;" x1="150.95" x2="361.1746" y1="364.2669" y2="364.2669"/><text fill="#FFFFFF" font-family="sans-serif" font-size="14" lengthAdjust="spacing" textLength="200.2246" x="155.95" y="381.262">-"inputTextTitle : std::string"</text><line style="stroke:#E7E7E7;stroke-width:0.5;" x1="150.95" x2="361.1746" y1="388.5637" y2="388.5637"/></g><!--class InputText--><g id="elem_InputText"><rect codeLine="58" fill="#313139" height="64.2969" id="InputText" rx="2.5" ry="2.5" style="stroke:#E7E7E7;stroke-width:0.5;" width="152.834" x="397.65" y="332.2669"/><ellipse cx="436.7896" cy="348.2669" fill="#2E5233" rx="11" ry="11" style="stroke:#E7E7E7;stroke-width:1;"/><path d="M439.7583,353.9075 Q439.1802,354.2044 438.5396,354.345 Q437.899,354.5012 437.1958,354.5012 Q434.6958,354.5012 433.3677,352.8606 Q432.0552,351.2044 432.0552,348.0794 Q432.0552,344.9544 433.3677,343.2981 Q434.6958,341.6419 437.1958,341.6419 Q437.899,341.6419 438.5396,341.7981 Q439.1958,341.9544 439.7583,342.2512 L439.7583,344.97 Q439.1333,344.3919 438.5396,344.1262 Q437.9458,343.845 437.3208,343.845 Q435.9771,343.845 435.2896,344.9231 Q434.6021,345.9856 434.6021,348.0794 Q434.6021,350.1731 435.2896,351.2512 Q435.9771,352.3137 437.3208,352.3137 Q437.9458,352.3137 438.5396,352.0481 Q439.1333,351.7669 439.7583,351.1887 L439.7583,353.9075 Z " fill="#FFFFFF"/><text fill="#FFFFFF" font-family="sans-serif" font-size="14" lengthAdjust="spacing" textLength="67.1904" x="456.154" y="353.1136">InputText</text><line style="stroke:#E7E7E7;stroke-width:0.5;" x1="398.65" x2="549.484" y1="364.2669" y2="364.2669"/><text fill="#FFFFFF" font-family="sans-serif" font-size="14" lengthAdjust="spacing" textLength="140.834" x="403.65" y="381.262">-"RenderText : text"</text><line style="stroke:#E7E7E7;stroke-width:0.5;" x1="398.65" x2="549.484" y1="388.5637" y2="388.5637"/></g><!--class ScrollableText--><g id="elem_ScrollableText"><rect codeLine="62" fill="#313139" height="64.2969" id="ScrollableText" rx="2.5" ry="2.5" style="stroke:#E7E7E7;stroke-width:0.5;" width="131.5928" x="585.27" y="332.2669"/><ellipse cx="600.27" cy="348.2669" fill="#2E5233" rx="11" ry="11" style="stroke:#E7E7E7;stroke-width:1;"/><path d="M603.2388,353.9075 Q602.6606,354.2044 602.02,354.345 Q601.3794,354.5012 600.6763,354.5012 Q598.1763,354.5012 596.8481,352.8606 Q595.5356,351.2044 595.5356,348.0794 Q595.5356,344.9544 596.8481,343.2981 Q598.1763,341.6419 600.6763,341.6419 Q601.3794,341.6419 602.02,341.7981 Q602.6763,341.9544 603.2388,342.2512 L603.2388,344.97 Q602.6138,344.3919 602.02,344.1262 Q601.4263,343.845 600.8013,343.845 Q599.4575,343.845 598.77,344.9231 Q598.0825,345.9856 598.0825,348.0794 Q598.0825,350.1731 598.77,351.2512 Q599.4575,352.3137 600.8013,352.3137 Q601.4263,352.3137 602.02,352.0481 Q602.6138,351.7669 603.2388,351.1887 L603.2388,353.9075 Z " fill="#FFFFFF"/><text fill="#FFFFFF" font-family="sans-serif" font-size="14" lengthAdjust="spacing" textLength="99.5928" x="614.27" y="353.1136">ScrollableText</text><line style="stroke:#E7E7E7;stroke-width:0.5;" x1="586.27" x2="715.8628" y1="364.2669" y2="364.2669"/><text fill="#FFFFFF" font-family="sans-serif" font-size="14" lengthAdjust="spacing" textLength="31.2813" x="591.27" y="381.262">-"..."</text><line style="stroke:#E7E7E7;stroke-width:0.5;" x1="586.27" x2="715.8628" y1="388.5637" y2="388.5637"/></g><!--class ServerId--><g id="elem_ServerId"><rect codeLine="66" fill="#313139" height="64.2969" id="ServerId" rx="2.5" ry="2.5" style="stroke:#E7E7E7;stroke-width:0.5;" width="127.0625" x="751.54" y="332.2669"/><ellipse cx="782.8015" cy="348.2669" fill="#2E5233" rx="11" ry="11" style="stroke:#E7E7E7;stroke-width:1;"/><path d="M785.7703,353.9075 Q785.1921,354.2044 784.5515,354.345 Q783.9109,354.5012 783.2078,354.5012 Q780.7078,354.5012 779.3796,352.8606 Q778.0671,351.2044 778.0671,348.0794 Q778.0671,344.9544 779.3796,343.2981 Q780.7078,341.6419 783.2078,341.6419 Q783.9109,341.6419 784.5515,341.7981 Q785.2078,341.9544 785.7703,342.2512 L785.7703,344.97 Q785.1453,344.3919 784.5515,344.1262 Q783.9578,343.845 783.3328,343.845 Q781.989,343.845 781.3015,344.9231 Q780.614,345.9856 780.614,348.0794 Q780.614,350.1731 781.3015,351.2512 Q781.989,352.3137 783.3328,352.3137 Q783.9578,352.3137 784.5515,352.0481 Q785.1453,351.7669 785.7703,351.1887 L785.7703,353.9075 Z " fill="#FFFFFF"/><text fill="#FFFFFF" font-family="sans-serif" font-size="14" lengthAdjust="spacing" textLength="58.9258" x="800.4152" y="353.1136">ServerId</text><line style="stroke:#E7E7E7;stroke-width:0.5;" x1="752.54" x2="877.6025" y1="364.2669" y2="364.2669"/><text fill="#FFFFFF" font-family="sans-serif" font-size="14" lengthAdjust="spacing" textLength="115.0625" x="757.54" y="381.262">-"id : std::size_t"</text><line style="stroke:#E7E7E7;stroke-width:0.5;" x1="752.54" x2="877.6025" y1="388.5637" y2="388.5637"/></g><!--class ComponentEntityType_Client--><g id="elem_ComponentEntityType_Client"><rect codeLine="70" fill="#313139" height="64.2969" id="ComponentEntityType_Client" rx="2.5" ry="2.5" style="stroke:#E7E7E7;stroke-width:0.5;" width="236.0186" x="3058.06" y="332.2669"/><ellipse cx="3073.06" cy="348.2669" fill="#2E5233" rx="11" ry="11" style="stroke:#E7E7E7;stroke-width:1;"/><path d="M3076.0288,353.9075 Q3075.4506,354.2044 3074.81,354.345 Q3074.1694,354.5012 3073.4663,354.5012 Q3070.9663,354.5012 3069.6381,352.8606 Q3068.3256,351.2044 3068.3256,348.0794 Q3068.3256,344.9544 3069.6381,343.2981 Q3070.9663,341.6419 3073.4663,341.6419 Q3074.1694,341.6419 3074.81,341.7981 Q3075.4663,341.9544 3076.0288,342.2512 L3076.0288,344.97 Q3075.4038,344.3919 3074.81,344.1262 Q3074.2163,343.845 3073.5913,343.845 Q3072.2475,343.845 3071.56,344.9231 Q3070.8725,345.9856 3070.8725,348.0794 Q3070.8725,350.1731 3071.56,351.2512 Q3072.2475,352.3137 3073.5913,352.3137 Q3074.2163,352.3137 3074.81,352.0481 Q3075.4038,351.7669 3076.0288,351.1887 L3076.0288,353.9075 Z " fill="#FFFFFF"/><text fill="#FFFFFF" font-family="sans-serif" font-size="14" lengthAdjust="spacing" textLength="204.0186" x="3087.06" y="353.1136">ComponentEntityType_Client</text><line style="stroke:#E7E7E7;stroke-width:0.5;" x1="3059.06" x2="3293.0786" y1="364.2669" y2="364.2669"/><text fill="#FFFFFF" font-family="sans-serif" font-size="14" lengthAdjust="spacing" textLength="138.0313" x="3064.06" y="381.262">-"type : EntityType"</text><line style="stroke:#E7E7E7;stroke-width:0.5;" x1="3059.06" x2="3293.0786" y1="388.5637" y2="388.5637"/></g><!--class Drawable--><g id="elem_Drawable"><rect codeLine="74" fill="#313139" height="113.1875" id="Drawable" rx="2.5" ry="2.5" style="stroke:#E7E7E7;stroke-width:0.5;" width="128.7852" x="2059.67" y="307.8169"/><ellipse cx="2088.2829" cy="323.8169" fill="#2E5233" rx="11" ry="11" style="stroke:#E7E7E7;stroke-width:1;"/><path d="M2091.2517,329.4575 Q2090.6736,329.7544 2090.0329,329.895 Q2089.3923,330.0512 2088.6892,330.0512 Q2086.1892,330.0512 2084.8611,328.4106 Q2083.5486,326.7544 2083.5486,323.6294 Q2083.5486,320.5044 2084.8611,318.8481 Q2086.1892,317.1919 2088.6892,317.1919 Q2089.3923,317.1919 2090.0329,317.3481 Q2090.6892,317.5044 2091.2517,317.8012 L2091.2517,320.52 Q2090.6267,319.9419 2090.0329,319.6762 Q2089.4392,319.395 2088.8142,319.395 Q2087.4704,319.395 2086.7829,320.4731 Q2086.0954,321.5356 2086.0954,323.6294 Q2086.0954,325.7231 2086.7829,326.8012 Q2087.4704,327.8637 2088.8142,327.8637 Q2089.4392,327.8637 2090.0329,327.5981 Q2090.6267,327.3169 2091.2517,326.7387 L2091.2517,329.4575 Z " fill="#FFFFFF"/><text fill="#FFFFFF" font-family="sans-serif" font-size="14" lengthAdjust="spacing" textLength="66.5342" x="2105.308" y="328.6636">Drawable</text><line style="stroke:#E7E7E7;stroke-width:0.5;" x1="2060.67" x2="2187.4552" y1="339.8169" y2="339.8169"/><text fill="#FFFFFF" font-family="sans-serif" font-size="14" lengthAdjust="spacing" textLength="109.3887" x="2065.67" y="356.812">-"textureID : int</text><text fill="#FFFFFF" font-family="sans-serif" font-size="14" lengthAdjust="spacing" textLength="83.6582" x="2065.67" y="373.1089">width : float</text><text fill="#FFFFFF" font-family="sans-serif" font-size="14" lengthAdjust="spacing" textLength="89.6943" x="2065.67" y="389.4057">height : float</text><text fill="#FFFFFF" font-family="sans-serif" font-size="14" lengthAdjust="spacing" textLength="116.7852" x="2065.67" y="405.7026">can_draw : bool"</text><line style="stroke:#E7E7E7;stroke-width:0.5;" x1="2060.67" x2="2187.4552" y1="413.0044" y2="413.0044"/></g><!--class ComponentEntityType_Server--><g id="elem_ComponentEntityType_Server"><rect codeLine="81" fill="#313139" height="80.5938" id="ComponentEntityType_Server" rx="2.5" ry="2.5" style="stroke:#E7E7E7;stroke-width:0.5;" width="241.3984" x="3329.37" y="324.1169"/><ellipse cx="3344.37" cy="340.1169" fill="#2E5233" rx="11" ry="11" style="stroke:#E7E7E7;stroke-width:1;"/><path d="M3347.3388,345.7575 Q3346.7606,346.0544 3346.12,346.195 Q3345.4794,346.3512 3344.7763,346.3512 Q3342.2763,346.3512 3340.9481,344.7106 Q3339.6356,343.0544 3339.6356,339.9294 Q3339.6356,336.8044 3340.9481,335.1481 Q3342.2763,333.4919 3344.7763,333.4919 Q3345.4794,333.4919 3346.12,333.6481 Q3346.7763,333.8044 3347.3388,334.1012 L3347.3388,336.82 Q3346.7138,336.2419 3346.12,335.9762 Q3345.5263,335.695 3344.9013,335.695 Q3343.5575,335.695 3342.87,336.7731 Q3342.1825,337.8356 3342.1825,339.9294 Q3342.1825,342.0231 3342.87,343.1012 Q3343.5575,344.1637 3344.9013,344.1637 Q3345.5263,344.1637 3346.12,343.8981 Q3346.7138,343.6169 3347.3388,343.0387 L3347.3388,345.7575 Z " fill="#FFFFFF"/><text fill="#FFFFFF" font-family="sans-serif" font-size="14" lengthAdjust="spacing" textLength="209.3984" x="3358.37" y="344.9636">ComponentEntityType_Server</text><line style="stroke:#E7E7E7;stroke-width:0.5;" x1="3330.37" x2="3569.7684" y1="356.1169" y2="356.1169"/><text fill="#FFFFFF" font-family="sans-serif" font-size="14" lengthAdjust="spacing" textLength="131.5918" x="3335.37" y="373.112">-"type : EntityType</text><text fill="#FFFFFF" font-family="sans-serif" font-size="14" lengthAdjust="spacing" textLength="79.0166" x="3335.37" y="389.4089">side : Side"</text><line style="stroke:#E7E7E7;stroke-width:0.5;" x1="3330.37" x2="3569.7684" y1="396.7106" y2="396.7106"/></g><!--class NetworkId--><g id="elem_NetworkId"><rect codeLine="85" fill="#313139" height="64.2969" id="NetworkId" rx="2.5" ry="2.5" style="stroke:#E7E7E7;stroke-width:0.5;" width="113.7529" x="2223.19" y="332.2669"/><ellipse cx="2242.8174" cy="348.2669" fill="#2E5233" rx="11" ry="11" style="stroke:#E7E7E7;stroke-width:1;"/><path d="M2245.7862,353.9075 Q2245.2081,354.2044 2244.5674,354.345 Q2243.9268,354.5012 2243.2237,354.5012 Q2240.7237,354.5012 2239.3956,352.8606 Q2238.0831,351.2044 2238.0831,348.0794 Q2238.0831,344.9544 2239.3956,343.2981 Q2240.7237,341.6419 2243.2237,341.6419 Q2243.9268,341.6419 2244.5674,341.7981 Q2245.2237,341.9544 2245.7862,342.2512 L2245.7862,344.97 Q2245.1612,344.3919 2244.5674,344.1262 Q2243.9737,343.845 2243.3487,343.845 Q2242.0049,343.845 2241.3174,344.9231 Q2240.6299,345.9856 2240.6299,348.0794 Q2240.6299,350.1731 2241.3174,351.2512 Q2242.0049,352.3137 2243.3487,352.3137 Q2243.9737,352.3137 2244.5674,352.0481 Q2245.1612,351.7669 2245.7862,351.1887 L2245.7862,353.9075 Z " fill="#FFFFFF"/><text fill="#FFFFFF" font-family="sans-serif" font-size="14" lengthAdjust="spacing" textLength="71.4697" x="2257.8458" y="353.1136">NetworkId</text><line style="stroke:#E7E7E7;stroke-width:0.5;" x1="2224.19" x2="2335.9429" y1="364.2669" y2="364.2669"/><text fill="#FFFFFF" font-family="sans-serif" font-size="14" lengthAdjust="spacing" textLength="101.7529" x="2229.19" y="381.262">-"id : uint16_t"</text><line style="stroke:#E7E7E7;stroke-width:0.5;" x1="2224.19" x2="2335.9429" y1="388.5637" y2="388.5637"/></g><!--class ClientInputs--><g id="elem_ClientInputs"><rect codeLine="89" fill="#313139" height="64.2969" id="ClientInputs" rx="2.5" ry="2.5" style="stroke:#E7E7E7;stroke-width:0.5;" width="280.1602" x="3605.99" y="332.2669"/><ellipse cx="3699.7825" cy="348.2669" fill="#2E5233" rx="11" ry="11" style="stroke:#E7E7E7;stroke-width:1;"/><path d="M3702.7512,353.9075 Q3702.1731,354.2044 3701.5325,354.345 Q3700.8919,354.5012 3700.1887,354.5012 Q3697.6887,354.5012 3696.3606,352.8606 Q3695.0481,351.2044 3695.0481,348.0794 Q3695.0481,344.9544 3696.3606,343.2981 Q3697.6887,341.6419 3700.1887,341.6419 Q3700.8919,341.6419 3701.5325,341.7981 Q3702.1887,341.9544 3702.7512,342.2512 L3702.7512,344.97 Q3702.1262,344.3919 3701.5325,344.1262 Q3700.9387,343.845 3700.3137,343.845 Q3698.97,343.845 3698.2825,344.9231 Q3697.595,345.9856 3697.595,348.0794 Q3697.595,350.1731 3698.2825,351.2512 Q3698.97,352.3137 3700.3137,352.3137 Q3700.9387,352.3137 3701.5325,352.0481 Q3702.1262,351.7669 3702.7512,351.1887 L3702.7512,353.9075 Z " fill="#FFFFFF"/><text fill="#FFFFFF" font-family="sans-serif" font-size="14" lengthAdjust="spacing" textLength="84.0752" x="3720.2825" y="353.1136">ClientInputs</text><line style="stroke:#E7E7E7;stroke-width:0.5;" x1="3606.99" x2="3885.1502" y1="364.2669" y2="364.2669"/><text fill="#FFFFFF" font-family="sans-serif" font-size="14" lengthAdjust="spacing" textLength="268.1602" x="3611.99" y="381.262">-"input_keys : std::vector&lt;InputKey&gt;"</text><line style="stroke:#E7E7E7;stroke-width:0.5;" x1="3606.99" x2="3885.1502" y1="388.5637" y2="388.5637"/></g><!--class ArtificialIntelligence--><g id="elem_ArtificialIntelligence"><rect codeLine="93" fill="#313139" height="64.2969" id="ArtificialIntelligence" rx="2.5" ry="2.5" style="stroke:#E7E7E7;stroke-width:0.5;" width="356.8184" x="2570.66" y="76.8869"/><ellipse cx="2675.2977" cy="92.8869" fill="#2E5233" rx="11" ry="11" style="stroke:#E7E7E7;stroke-width:1;"/><path d="M2678.2664,98.5275 Q2677.6883,98.8244 2677.0477,98.965 Q2676.4071,99.1212 2675.7039,99.1212 Q2673.2039,99.1212 2671.8758,97.4806 Q2670.5633,95.8244 2670.5633,92.6994 Q2670.5633,89.5744 2671.8758,87.9181 Q2673.2039,86.2619 2675.7039,86.2619 Q2676.4071,86.2619 2677.0477,86.4181 Q2677.7039,86.5744 2678.2664,86.8712 L2678.2664,89.59 Q2677.6414,89.0119 2677.0477,88.7462 Q2676.4539,88.465 2675.8289,88.465 Q2674.4852,88.465 2673.7977,89.5431 Q2673.1102,90.6056 2673.1102,92.6994 Q2673.1102,94.7931 2673.7977,95.8712 Q2674.4852,96.9337 2675.8289,96.9337 Q2676.4539,96.9337 2677.0477,96.6681 Q2677.6414,96.3869 2678.2664,95.8087 L2678.2664,98.5275 Z " fill="#FFFFFF"/><text fill="#FFFFFF" font-family="sans-serif" font-size="14" lengthAdjust="spacing" textLength="139.043" x="2695.7977" y="97.7336">ArtificialIntelligence</text><line style="stroke:#E7E7E7;stroke-width:0.5;" x1="2571.66" x2="2926.4784" y1="108.8869" y2="108.8869"/><line style="stroke:#E7E7E7;stroke-width:0.5;" x1="2571.66" x2="2926.4784" y1="116.8869" y2="116.8869"/><text fill="#FFFFFF" font-family="sans-serif" font-size="14" lengthAdjust="spacing" textLength="344.8184" x="2576.66" y="133.882">-"ia : std::function&lt;void(Registry&amp;, std::size_t)&gt;"</text></g><!--class Bonus--><g id="elem_Bonus"><rect codeLine="97" fill="#313139" height="162.0781" id="Bonus" rx="2.5" ry="2.5" style="stroke:#E7E7E7;stroke-width:0.5;" width="147.3516" x="2875.39" y="283.3769"/><ellipse cx="2923.2108" cy="299.3769" fill="#2E5233" rx="11" ry="11" style="stroke:#E7E7E7;stroke-width:1;"/><path d="M2926.1796,305.0175 Q2925.6014,305.3144 2924.9608,305.455 Q2924.3202,305.6112 2923.6171,305.6112 Q2921.1171,305.6112 2919.7889,303.9706 Q2918.4764,302.3144 2918.4764,299.1894 Q2918.4764,296.0644 2919.7889,294.4081 Q2921.1171,292.7519 2923.6171,292.7519 Q2924.3202,292.7519 2924.9608,292.9081 Q2925.6171,293.0644 2926.1796,293.3612 L2926.1796,296.08 Q2925.5546,295.5019 2924.9608,295.2362 Q2924.3671,294.955 2923.7421,294.955 Q2922.3983,294.955 2921.7108,296.0331 Q2921.0233,297.0956 2921.0233,299.1894 Q2921.0233,301.2831 2921.7108,302.3612 Q2922.3983,303.4237 2923.7421,303.4237 Q2924.3671,303.4237 2924.9608,303.1581 Q2925.5546,302.8769 2926.1796,302.2987 L2926.1796,305.0175 Z " fill="#FFFFFF"/><text fill="#FFFFFF" font-family="sans-serif" font-size="14" lengthAdjust="spacing" textLength="43.21" x="2943.7108" y="304.2236">Bonus</text><line style="stroke:#E7E7E7;stroke-width:0.5;" x1="2876.39" x2="3021.7416" y1="315.3769" y2="315.3769"/><text fill="#FFFFFF" font-family="sans-serif" font-size="14" lengthAdjust="spacing" textLength="135.3516" x="2881.39" y="332.372">enum BonusType {</text><text fill="#FFFFFF" font-family="sans-serif" font-size="14" lengthAdjust="spacing" textLength="40.9746" x="2881.39" y="348.6689">None,</text><text fill="#FFFFFF" font-family="sans-serif" font-size="14" lengthAdjust="spacing" textLength="63.5264" x="2881.39" y="364.9657">Damage,</text><text fill="#FFFFFF" font-family="sans-serif" font-size="14" lengthAdjust="spacing" textLength="71.4014" x="2881.39" y="381.2626">TripleShot</text><text fill="#FFFFFF" font-family="sans-serif" font-size="14" lengthAdjust="spacing" textLength="13.3574" x="2881.39" y="397.5595">},</text><line style="stroke:#E7E7E7;stroke-width:1;" x1="2876.39" x2="3021.7416" y1="404.8612" y2="404.8612"/><text fill="#FFFFFF" font-family="sans-serif" font-size="14" lengthAdjust="spacing" textLength="133.9297" x="2881.39" y="421.8564">-"type : BonusType</text><text fill="#FFFFFF" font-family="sans-serif" font-size="14" lengthAdjust="spacing" textLength="103.5713" x="2881.39" y="438.1532">id : std::size_t"</text></g><!--class InputKey--><g id="elem_InputKey"><rect codeLine="110" fill="#313139" height="145.7813" id="InputKey" rx="2.5" ry="2.5" style="stroke:#E7E7E7;stroke-width:0.5;" width="132.2715" x="3679.93" y="618.9369"/><ellipse cx="3712.0036" cy="634.9369" fill="#852D19" rx="11" ry="11" style="stroke:#E7E7E7;stroke-width:1;"/><path d="M3716.113,640.9369 L3708.3943,640.9369 L3708.3943,628.5463 L3716.113,628.5463 L3716.113,630.7025 L3710.8474,630.7025 L3710.8474,633.3744 L3715.613,633.3744 L3715.613,635.5306 L3710.8474,635.5306 L3710.8474,638.7806 L3716.113,638.7806 L3716.113,640.9369 Z " fill="#FFFFFF"/><text fill="#FFFFFF" font-family="sans-serif" font-size="14" lengthAdjust="spacing" textLength="62.3301" x="3729.7978" y="639.7836">InputKey</text><line style="stroke:#E7E7E7;stroke-width:0.5;" x1="3680.93" x2="3811.2015" y1="650.9369" y2="650.9369"/><text fill="#FFFFFF" font-family="sans-serif" font-size="14" lengthAdjust="spacing" textLength="71.6611" x="3685.93" y="667.932">MOVE_UP,</text><text fill="#FFFFFF" font-family="sans-serif" font-size="14" lengthAdjust="spacing" textLength="99.0869" x="3685.93" y="684.2289">MOVE_DOWN,</text><text fill="#FFFFFF" font-family="sans-serif" font-size="14" lengthAdjust="spacing" textLength="86.2217" x="3685.93" y="700.5257">MOVE_LEFT,</text><text fill="#FFFFFF" font-family="sans-serif" font-size="14" lengthAdjust="spacing" textLength="96.7559" x="3685.93" y="716.8226">MOVE_RIGHT,</text><text fill="#FFFFFF" font-family="sans-serif" font-size="14" lengthAdjust="spacing" textLength="54.4551" x="3685.93" y="733.1195">SHOOT,</text><text fill="#FFFFFF" font-family="sans-serif" font-size="14" lengthAdjust="spacing" textLength="120.2715" x="3685.93" y="749.4164">NB_INPUTS_KEYS</text><line style="stroke:#E7E7E7;stroke-width:0.5;" x1="3680.93" x2="3811.2015" y1="756.7181" y2="756.7181"/></g><!--class EntityType--><g id="elem_EntityType"><rect codeLine="119" fill="#313139" height="243.5625" id="EntityType" rx="2.5" ry="2.5" style="stroke:#E7E7E7;stroke-width:0.5;" width="162.7119" x="3368.71" y="570.0469"/><ellipse cx="3408.6863" cy="586.0469" fill="#852D19" rx="11" ry="11" style="stroke:#E7E7E7;stroke-width:1;"/><path d="M3412.7957,592.0469 L3405.0769,592.0469 L3405.0769,579.6563 L3412.7957,579.6563 L3412.7957,581.8125 L3407.5301,581.8125 L3407.5301,584.4844 L3412.2957,584.4844 L3412.2957,586.6406 L3407.5301,586.6406 L3407.5301,589.8906 L3412.7957,589.8906 L3412.7957,592.0469 Z " fill="#FFFFFF"/><text fill="#FFFFFF" font-family="sans-serif" font-size="14" lengthAdjust="spacing" textLength="75.209" x="3428.2366" y="590.8936">EntityType</text><line style="stroke:#E7E7E7;stroke-width:0.5;" x1="3369.71" x2="3530.4219" y1="602.0469" y2="602.0469"/><text fill="#FFFFFF" font-family="sans-serif" font-size="14" lengthAdjust="spacing" textLength="57.3945" x="3374.71" y="619.042">PLAYER,</text><text fill="#FFFFFF" font-family="sans-serif" font-size="14" lengthAdjust="spacing" textLength="117.2432" x="3374.71" y="635.3389">PLAYER_BULLET,</text><text fill="#FFFFFF" font-family="sans-serif" font-size="14" lengthAdjust="spacing" textLength="84.6494" x="3374.71" y="651.6357">ENEMY_FLY,</text><text fill="#FFFFFF" font-family="sans-serif" font-size="14" lengthAdjust="spacing" textLength="98.0273" x="3374.71" y="667.9326">ENEMY_TANK,</text><text fill="#FFFFFF" font-family="sans-serif" font-size="14" lengthAdjust="spacing" textLength="115.8965" x="3374.71" y="684.2295">ENEMY_TURRET,</text><text fill="#FFFFFF" font-family="sans-serif" font-size="14" lengthAdjust="spacing" textLength="113.0938" x="3374.71" y="700.5264">ENEMY_BULLET,</text><text fill="#FFFFFF" font-family="sans-serif" font-size="14" lengthAdjust="spacing" textLength="97.0771" x="3374.71" y="716.8232">BOSS_HEART,</text><text fill="#FFFFFF" font-family="sans-serif" font-size="14" lengthAdjust="spacing" textLength="42.8477" x="3374.71" y="733.1201">BOSS,</text><text fill="#FFFFFF" font-family="sans-serif" font-size="14" lengthAdjust="spacing" textLength="43.4697" x="3374.71" y="749.417">WALL,</text><text fill="#FFFFFF" font-family="sans-serif" font-size="14" lengthAdjust="spacing" textLength="117.5098" x="3374.71" y="765.7139">BONUS_HEALTH,</text><text fill="#FFFFFF" font-family="sans-serif" font-size="14" lengthAdjust="spacing" textLength="123.3887" x="3374.71" y="782.0107">BONUS_DAMAGE,</text><text fill="#FFFFFF" font-family="sans-serif" font-size="14" lengthAdjust="spacing" textLength="150.7119" x="3374.71" y="798.3076">BONUS_TRIPLE_SHOT</text><line style="stroke:#E7E7E7;stroke-width:0.5;" x1="3369.71" x2="3530.4219" y1="805.6094" y2="805.6094"/></g><!--class LobbyState--><g id="elem_LobbyState"><rect codeLine="134" fill="#313139" height="113.1875" id="LobbyState" rx="2.5" ry="2.5" style="stroke:#E7E7E7;stroke-width:0.5;" width="111.4814" x="4550.33" y="52.4469"/><ellipse cx="4565.33" cy="68.4469" fill="#852D19" rx="11" ry="11" style="stroke:#E7E7E7;stroke-width:1;"/><path d="M4569.4394,74.4469 L4561.7206,74.4469 L4561.7206,62.0562 L4569.4394,62.0562 L4569.4394,64.2125 L4564.1738,64.2125 L4564.1738,66.8844 L4568.9394,66.8844 L4568.9394,69.0406 L4564.1738,69.0406 L4564.1738,72.2906 L4569.4394,72.2906 L4569.4394,74.4469 Z " fill="#FFFFFF"/><text fill="#FFFFFF" font-family="sans-serif" font-size="14" lengthAdjust="spacing" textLength="79.4814" x="4579.33" y="73.2936">LobbyState</text><line style="stroke:#E7E7E7;stroke-width:0.5;" x1="4551.33" x2="4660.8114" y1="84.4469" y2="84.4469"/><text fill="#FFFFFF" font-family="sans-serif" font-size="14" lengthAdjust="spacing" textLength="43.2305" x="4556.33" y="101.442">OPEN,</text><text fill="#FFFFFF" font-family="sans-serif" font-size="14" lengthAdjust="spacing" textLength="38.3496" x="4556.33" y="117.7389">FULL,</text><text fill="#FFFFFF" font-family="sans-serif" font-size="14" lengthAdjust="spacing" textLength="67.4023" x="4556.33" y="134.0357">IN_GAME,</text><text fill="#FFFFFF" font-family="sans-serif" font-size="14" lengthAdjust="spacing" textLength="46.3271" x="4556.33" y="150.3326">CLOSE</text><line style="stroke:#E7E7E7;stroke-width:0.5;" x1="4551.33" x2="4660.8114" y1="157.6344" y2="157.6344"/></g><!--class Vector2f--><g id="elem_Vector2f"><rect codeLine="141" fill="#313139" height="80.5938" id="Vector2f" rx="2.5" ry="2.5" style="stroke:#E7E7E7;stroke-width:0.5;" width="91.5342" x="4076.3" y="651.5269"/><ellipse cx="4091.3" cy="667.5269" fill="#2E5233" rx="11" ry="11" style="stroke:#E7E7E7;stroke-width:1;"/><path d="M4094.2688,673.1675 Q4093.6906,673.4644 4093.05,673.605 Q4092.4094,673.7612 4091.7063,673.7612 Q4089.2063,673.7612 4087.8781,672.1206 Q4086.5656,670.4644 4086.5656,667.3394 Q4086.5656,664.2144 4087.8781,662.5581 Q4089.2063,660.9019 4091.7063,660.9019 Q4092.4094,660.9019 4093.05,661.0581 Q4093.7063,661.2144 4094.2688,661.5112 L4094.2688,664.23 Q4093.6438,663.6519 4093.05,663.3862 Q4092.4563,663.105 4091.8313,663.105 Q4090.4875,663.105 4089.8,664.1831 Q4089.1125,665.2456 4089.1125,667.3394 Q4089.1125,669.4331 4089.8,670.5112 Q4090.4875,671.5737 4091.8313,671.5737 Q4092.4563,671.5737 4093.05,671.3081 Q4093.6438,671.0269 4094.2688,670.4487 L4094.2688,673.1675 Z " fill="#FFFFFF"/><text fill="#FFFFFF" font-family="sans-serif" font-size="14" lengthAdjust="spacing" textLength="59.5342" x="4105.3" y="672.3736">Vector2f</text><line style="stroke:#E7E7E7;stroke-width:0.5;" x1="4077.3" x2="4166.8342" y1="683.5269" y2="683.5269"/><text fill="#FFFFFF" font-family="sans-serif" font-size="14" lengthAdjust="spacing" textLength="53.3545" x="4082.3" y="700.522">x : float</text><text fill="#FFFFFF" font-family="sans-serif" font-size="14" lengthAdjust="spacing" textLength="53.3545" x="4082.3" y="716.8189">y : float</text><line style="stroke:#E7E7E7;stroke-width:0.5;" x1="4077.3" x2="4166.8342" y1="724.1206" y2="724.1206"/></g><!--class SpawnEntityPacket--><g id="elem_SpawnEntityPacket"><rect codeLine="146" fill="#313139" height="227.2656" id="SpawnEntityPacket" rx="2.5" ry="2.5" style="stroke:#E7E7E7;stroke-width:0.5;" width="168.2627" x="3920.94" y="250.7769"/><ellipse cx="3936.7438" cy="266.7769" fill="#2E5233" rx="11" ry="11" style="stroke:#E7E7E7;stroke-width:1;"/><path d="M3939.7125,272.4175 Q3939.1344,272.7144 3938.4938,272.855 Q3937.8531,273.0112 3937.15,273.0112 Q3934.65,273.0112 3933.3219,271.3706 Q3932.0094,269.7144 3932.0094,266.5894 Q3932.0094,263.4644 3933.3219,261.8081 Q3934.65,260.1519 3937.15,260.1519 Q3937.8531,260.1519 3938.4938,260.3081 Q3939.15,260.4644 3939.7125,260.7612 L3939.7125,263.48 Q3939.0875,262.9019 3938.4938,262.6362 Q3937.9,262.355 3937.275,262.355 Q3935.9313,262.355 3935.2438,263.4331 Q3934.5563,264.4956 3934.5563,266.5894 Q3934.5563,268.6831 3935.2438,269.7612 Q3935.9313,270.8237 3937.275,270.8237 Q3937.9,270.8237 3938.4938,270.5581 Q3939.0875,270.2769 3939.7125,269.6987 L3939.7125,272.4175 Z " fill="#FFFFFF"/><text fill="#FFFFFF" font-family="sans-serif" font-size="14" lengthAdjust="spacing" textLength="134.4766" x="3950.9224" y="271.6236">SpawnEntityPacket</text><line style="stroke:#E7E7E7;stroke-width:0.5;" x1="3921.94" x2="4088.2027" y1="282.7769" y2="282.7769"/><text fill="#FFFFFF" font-family="sans-serif" font-size="14" lengthAdjust="spacing" textLength="156.2627" x="3926.94" y="299.772">-"entity_id : std::size_t</text><text fill="#FFFFFF" font-family="sans-serif" font-size="14" lengthAdjust="spacing" textLength="6.4395" x="3926.94" y="316.0689">"</text><text fill="#FFFFFF" font-family="sans-serif" font-size="14" lengthAdjust="spacing" textLength="131.5918" x="3926.94" y="332.3657">-"type : EntityType</text><text fill="#FFFFFF" font-family="sans-serif" font-size="14" lengthAdjust="spacing" textLength="6.4395" x="3926.94" y="348.6626">"</text><text fill="#FFFFFF" font-family="sans-serif" font-size="14" lengthAdjust="spacing" textLength="140.0957" x="3926.94" y="364.9595">-"position : Vector2f</text><text fill="#FFFFFF" font-family="sans-serif" font-size="14" lengthAdjust="spacing" textLength="6.4395" x="3926.94" y="381.2564">"</text><text fill="#FFFFFF" font-family="sans-serif" font-size="14" lengthAdjust="spacing" textLength="111.7881" x="3926.94" y="397.5532">-"size : Vector2f</text><text fill="#FFFFFF" font-family="sans-serif" font-size="14" lengthAdjust="spacing" textLength="6.4395" x="3926.94" y="413.8501">"</text><text fill="#FFFFFF" font-family="sans-serif" font-size="14" lengthAdjust="spacing" textLength="139.3574" x="3926.94" y="430.147">-"velocity : Vector2f</text><text fill="#FFFFFF" font-family="sans-serif" font-size="14" lengthAdjust="spacing" textLength="6.4395" x="3926.94" y="446.4439">"</text><text fill="#FFFFFF" font-family="sans-serif" font-size="14" lengthAdjust="spacing" textLength="94.1172" x="3926.94" y="462.7407">-"health : int"</text><line style="stroke:#E7E7E7;stroke-width:0.5;" x1="3921.94" x2="4088.2027" y1="470.0425" y2="470.0425"/></g><!--class EntityPositionVelocityPacket--><g id="elem_EntityPositionVelocityPacket"><rect codeLine="155" fill="#313139" height="129.4844" id="EntityPositionVelocityPacket" rx="2.5" ry="2.5" style="stroke:#E7E7E7;stroke-width:0.5;" width="230.8164" x="4124.66" y="299.6669"/><ellipse cx="4139.66" cy="315.6669" fill="#2E5233" rx="11" ry="11" style="stroke:#E7E7E7;stroke-width:1;"/><path d="M4142.6288,321.3075 Q4142.0506,321.6044 4141.41,321.745 Q4140.7694,321.9012 4140.0663,321.9012 Q4137.5663,321.9012 4136.2381,320.2606 Q4134.9256,318.6044 4134.9256,315.4794 Q4134.9256,312.3544 4136.2381,310.6981 Q4137.5663,309.0419 4140.0663,309.0419 Q4140.7694,309.0419 4141.41,309.1981 Q4142.0663,309.3544 4142.6288,309.6512 L4142.6288,312.37 Q4142.0038,311.7919 4141.41,311.5262 Q4140.8163,311.245 4140.1913,311.245 Q4138.8475,311.245 4138.16,312.3231 Q4137.4725,313.3856 4137.4725,315.4794 Q4137.4725,317.5731 4138.16,318.6512 Q4138.8475,319.7137 4140.1913,319.7137 Q4140.8163,319.7137 4141.41,319.4481 Q4142.0038,319.1669 4142.6288,318.5887 L4142.6288,321.3075 Z " fill="#FFFFFF"/><text fill="#FFFFFF" font-family="sans-serif" font-size="14" lengthAdjust="spacing" textLength="198.8164" x="4153.66" y="320.5136">EntityPositionVelocityPacket</text><line style="stroke:#E7E7E7;stroke-width:0.5;" x1="4125.66" x2="4354.4764" y1="331.6669" y2="331.6669"/><text fill="#FFFFFF" font-family="sans-serif" font-size="14" lengthAdjust="spacing" textLength="156.2627" x="4130.66" y="348.662">-"entity_id : std::size_t</text><text fill="#FFFFFF" font-family="sans-serif" font-size="14" lengthAdjust="spacing" textLength="6.4395" x="4130.66" y="364.9589">"</text><text fill="#FFFFFF" font-family="sans-serif" font-size="14" lengthAdjust="spacing" textLength="140.0957" x="4130.66" y="381.2557">-"position : Vector2f</text><text fill="#FFFFFF" font-family="sans-serif" font-size="14" lengthAdjust="spacing" textLength="6.4395" x="4130.66" y="397.5526">"</text><text fill="#FFFFFF" font-family="sans-serif" font-size="14" lengthAdjust="spacing" textLength="145.7969" x="4130.66" y="413.8495">-"velocity : Vector2f"</text><line style="stroke:#E7E7E7;stroke-width:0.5;" x1="4125.66" x2="4354.4764" y1="421.1512" y2="421.1512"/></g><!--class INetworkServer--><g id="elem_INetworkServer"><rect codeLine="164" fill="#313139" height="129.4844" id="INetworkServer" rx="2.5" ry="2.5" style="stroke:#E7E7E7;stroke-width:0.5;" width="395.2021" x="4120.47" y="44.2969"/><ellipse cx="4259.5745" cy="60.2969" fill="#352866" rx="11" ry="11" style="stroke:#E7E7E7;stroke-width:1;"/><path d="M4255.4964,56.0625 L4255.4964,53.9063 L4262.887,53.9063 L4262.887,56.0625 L4260.4182,56.0625 L4260.4182,64.1406 L4262.887,64.1406 L4262.887,66.2969 L4255.4964,66.2969 L4255.4964,64.1406 L4257.9651,64.1406 L4257.9651,56.0625 L4255.4964,56.0625 Z " fill="#FFFFFF"/><text fill="#FFFFFF" font-family="sans-serif" font-size="14" font-style="italic" lengthAdjust="spacing" textLength="108.4932" x="4280.0745" y="65.1436">INetworkServer</text><line style="stroke:#E7E7E7;stroke-width:0.5;" x1="4121.47" x2="4514.6721" y1="76.2969" y2="76.2969"/><line style="stroke:#E7E7E7;stroke-width:0.5;" x1="4121.47" x2="4514.6721" y1="84.2969" y2="84.2969"/><text fill="#FFFFFF" font-family="sans-serif" font-size="14" lengthAdjust="spacing" textLength="152.6191" x="4126.47" y="101.292">+host(port : uint16_t)</text><text fill="#FFFFFF" font-family="sans-serif" font-size="14" lengthAdjust="spacing" textLength="58.7139" x="4126.47" y="117.5889">+close()</text><text fill="#FFFFFF" font-family="sans-serif" font-size="14" lengthAdjust="spacing" textLength="155.1211" x="4126.47" y="133.8857">+getAllOldestPacket()</text><text fill="#FFFFFF" font-family="sans-serif" font-size="14" lengthAdjust="spacing" textLength="383.2021" x="4126.47" y="150.1826">+send(client : uint16_t, packet : std::vector&lt;uint8_t&gt;)</text><text fill="#FFFFFF" font-family="sans-serif" font-size="14" lengthAdjust="spacing" textLength="282.1602" x="4126.47" y="166.4795">+sendAll(packet : std::vector&lt;uint8_t&gt;)</text></g><!--class INetworkClient--><g id="elem_INetworkClient"><rect codeLine="172" fill="#313139" height="113.1875" id="INetworkClient" rx="2.5" ry="2.5" style="stroke:#E7E7E7;stroke-width:0.5;" width="296.792" x="3779.67" y="52.4469"/><ellipse cx="3872.2594" cy="68.4469" fill="#352866" rx="11" ry="11" style="stroke:#E7E7E7;stroke-width:1;"/><path d="M3868.1812,64.2125 L3868.1812,62.0562 L3875.5719,62.0562 L3875.5719,64.2125 L3873.1031,64.2125 L3873.1031,72.2906 L3875.5719,72.2906 L3875.5719,74.4469 L3868.1812,74.4469 L3868.1812,72.2906 L3870.65,72.2906 L3870.65,64.2125 L3868.1812,64.2125 Z " fill="#FFFFFF"/><text fill="#FFFFFF" font-family="sans-serif" font-size="14" font-style="italic" lengthAdjust="spacing" textLength="103.1133" x="3892.7594" y="73.2936">INetworkClient</text><line style="stroke:#E7E7E7;stroke-width:0.5;" x1="3780.67" x2="4075.462" y1="84.4469" y2="84.4469"/><line style="stroke:#E7E7E7;stroke-width:0.5;" x1="3780.67" x2="4075.462" y1="92.4469" y2="92.4469"/><text fill="#FFFFFF" font-family="sans-serif" font-size="14" lengthAdjust="spacing" textLength="284.792" x="3785.67" y="109.442">+connect(ip : std::string, port : uint16_t)</text><text fill="#FFFFFF" font-family="sans-serif" font-size="14" lengthAdjust="spacing" textLength="58.7139" x="3785.67" y="125.7389">+close()</text><text fill="#FFFFFF" font-family="sans-serif" font-size="14" lengthAdjust="spacing" textLength="137.7646" x="3785.67" y="142.0357">+getOldestPacket()</text><text fill="#FFFFFF" font-family="sans-serif" font-size="14" lengthAdjust="spacing" textLength="264.8037" x="3785.67" y="158.3326">+send(packet : std::vector&lt;uint8_t&gt;)</text></g><!--link Registry to SparseArrayT--><g id="link_Registry_SparseArrayT"><path codeLine="20" d="M2621.897,413.8988 C2599.307,437.6888 2576.41,458.3169 2544.07,478.0469 C2391.05,571.4169 2196.6497,631.1876 2073.2297,663.0376 " fill="#FFFFFF" fill-opacity="0.00000" id="Registry-SparseArrayT" style="stroke:#E7E7E7;stroke-width:1;"/><polygon fill="#FFFFFF" fill-opacity="0.00000" points="2630.16,405.1969,2623.1279,406.7935,2621.897,413.8988,2628.9291,412.3022,2630.16,405.1969" style="stroke:#E7E7E7;stroke-width:1;"/><polygon fill="#E7E7E7" points="2067.42,664.5369,2077.134,666.1611,2072.2614,663.2875,2075.135,658.4149,2067.42,664.5369" style="stroke:#E7E7E7;stroke-width:1;"/><text fill="#FFFFFF" font-family="sans-serif" font-size="13" lengthAdjust="spacing" textLength="59.8584" x="2532.6362" y="521.1138">manages</text><text fill="#FFFFFF" font-family="sans-serif" font-size="13" lengthAdjust="spacing" textLength="154.9907" x="2485.07" y="536.2466">(1 per component type)</text><text fill="#FFFFFF" font-family="sans-serif" font-size="13" lengthAdjust="spacing" textLength="8.271" x="2616.2237" y="424.6673">1</text><text fill="#FFFFFF" font-family="sans-serif" font-size="13" lengthAdjust="spacing" textLength="26.2603" x="2075.1275" y="659.488">0..N</text></g><!--link RenderText to SparseArrayT--><g id="link_RenderText_SparseArrayT"><path codeLine="184" d="M1018.01,421.3369 C1032.35,441.0869 1050.24,462.2769 1070.07,478.0469 C1121.74,519.1369 1142.28,519.6169 1205.07,540.0469 C1424.85,611.5669 1686.5081,654.7438 1835.0081,675.5638 " fill="#FFFFFF" fill-opacity="0.00000" id="RenderText-to-SparseArrayT" style="stroke:#E7E7E7;stroke-width:1;stroke-dasharray:1.0,3.0;"/><polygon fill="#E7E7E7" points="1840.95,676.3969,1832.5925,671.186,1835.9984,675.7027,1831.4818,679.1085,1840.95,676.3969" style="stroke:#E7E7E7;stroke-width:1;"/><text fill="#FFFFFF" font-family="sans-serif" font-size="13" lengthAdjust="spacing" textLength="57.4019" x="1206.07" y="528.6138">stored in</text></g><!--link ColorText to SparseArrayT--><g id="link_ColorText_SparseArrayT"><path codeLine="185" d="M1158.5,396.8869 C1170.92,422.3469 1191.74,457.2769 1220.07,478.0469 C1409.04,616.6269 1680.6856,664.6146 1834.6656,681.4546 " fill="#FFFFFF" fill-opacity="0.00000" id="ColorText-to-SparseArrayT" style="stroke:#E7E7E7;stroke-width:1;stroke-dasharray:1.0,3.0;"/><polygon fill="#E7E7E7" points="1840.63,682.1069,1832.1182,677.1521,1835.6596,681.5633,1831.2485,685.1047,1840.63,682.1069" style="stroke:#E7E7E7;stroke-width:1;"/></g><!--link MouseOverTextSound to SparseArrayT--><g id="link_MouseOverTextSound_SparseArrayT"><path codeLine="186" d="M1419.44,413.3469 C1445.38,434.5769 1477.31,458.9969 1508.07,478.0469 C1621.85,548.5069 1757.0493,609.7806 1849.6293,648.7206 " fill="#FFFFFF" fill-opacity="0.00000" id="MouseOverTextSound-to-SparseArrayT" style="stroke:#E7E7E7;stroke-width:1;stroke-dasharray:1.0,3.0;"/><polygon fill="#E7E7E7" points="1855.16,651.0469,1848.4148,643.8704,1850.5511,649.1083,1845.3131,651.2446,1855.16,651.0469" style="stroke:#E7E7E7;stroke-width:1;"/></g><!--link ClickableText to SparseArrayT--><g id="link_ClickableText_SparseArrayT"><path codeLine="187" d="M1712.91,396.9069 C1761.86,456.5669 1864.1639,581.2586 1917.8139,646.6386 " fill="#FFFFFF" fill-opacity="0.00000" id="ClickableText-to-SparseArrayT" style="stroke:#E7E7E7;stroke-width:1;stroke-dasharray:1.0,3.0;"/><polygon fill="#E7E7E7" points="1921.62,651.2769,1919.003,641.7821,1918.4482,647.4116,1912.8187,646.8569,1921.62,651.2769" style="stroke:#E7E7E7;stroke-width:1;"/></g><!--link MouseOverText to SparseArrayT--><g id="link_MouseOverText_SparseArrayT"><path codeLine="188" d="M1954.07,396.9069 C1954.07,456.5669 1954.07,579.8969 1954.07,645.2769 " fill="#FFFFFF" fill-opacity="0.00000" id="MouseOverText-to-SparseArrayT" style="stroke:#E7E7E7;stroke-width:1;stroke-dasharray:1.0,3.0;"/><polygon fill="#E7E7E7" points="1954.07,651.2769,1958.07,642.2769,1954.07,646.2769,1950.07,642.2769,1954.07,651.2769" style="stroke:#E7E7E7;stroke-width:1;"/></g><!--link ColorOverText to SparseArrayT--><g id="link_ColorOverText_SparseArrayT"><path codeLine="189" d="M2421.68,404.9569 C2404.21,428.2069 2380.04,457.0669 2354.07,478.0469 C2261.06,553.1769 2142.9795,611.7079 2057.9295,648.8079 " fill="#FFFFFF" fill-opacity="0.00000" id="ColorOverText-to-SparseArrayT" style="stroke:#E7E7E7;stroke-width:1;stroke-dasharray:1.0,3.0;"/><polygon fill="#E7E7E7" points="2052.43,651.2069,2062.2786,651.2748,2057.0129,649.2077,2059.08,643.9421,2052.43,651.2069" style="stroke:#E7E7E7;stroke-width:1;"/></g><!--link Rect to SparseArrayT--><g id="link_Rect_SparseArrayT"><path codeLine="190" d="M80.26,413.1069 C91.91,436.1469 109.03,462.1769 132.07,478.0469 C247.42,557.4969 302.54,519.2969 441.07,540.0469 C961.23,617.9569 1582.2543,665.5133 1834.6743,682.9533 " fill="#FFFFFF" fill-opacity="0.00000" id="Rect-to-SparseArrayT" style="stroke:#E7E7E7;stroke-width:1;stroke-dasharray:1.0,3.0;"/><polygon fill="#E7E7E7" points="1840.66,683.3669,1831.9571,678.756,1835.6719,683.0222,1831.4057,686.737,1840.66,683.3669" style="stroke:#E7E7E7;stroke-width:1;"/></g><!--link Input to SparseArrayT--><g id="link_Input_SparseArrayT"><path codeLine="191" d="M282.75,396.9169 C305.97,422.3969 341.84,457.3269 380.07,478.0469 C475.79,529.9169 510.03,520.1169 617.07,540.0469 C1066.31,623.6869 1603.7044,667.1321 1835.0244,683.1621 " fill="#FFFFFF" fill-opacity="0.00000" id="Input-to-SparseArrayT" style="stroke:#E7E7E7;stroke-width:1;stroke-dasharray:1.0,3.0;"/><polygon fill="#E7E7E7" points="1841.01,683.5769,1832.3081,678.9643,1836.022,683.2312,1831.755,686.9451,1841.01,683.5769" style="stroke:#E7E7E7;stroke-width:1;"/></g><!--link InputText to SparseArrayT--><g id="link_InputText_SparseArrayT"><path codeLine="192" d="M492.79,396.8469 C509.5,422.2869 536.2,457.1969 568.07,478.0469 C650.58,532.0169 684.55,519.9169 781.07,540.0469 C1165.48,620.1869 1624.2104,664.2423 1834.7004,681.6523 " fill="#FFFFFF" fill-opacity="0.00000" id="InputText-to-SparseArrayT" style="stroke:#E7E7E7;stroke-width:1;stroke-dasharray:1.0,3.0;"/><polygon fill="#E7E7E7" points="1840.68,682.1469,1832.0403,677.4186,1835.697,681.7347,1831.3809,685.3914,1840.68,682.1469" style="stroke:#E7E7E7;stroke-width:1;"/></g><!--link ScrollableText to SparseArrayT--><g id="link_ScrollableText_SparseArrayT"><path codeLine="193" d="M666.77,396.8469 C681.02,422.2869 704.33,457.1969 734.07,478.0469 C813.75,533.9069 849.05,519.0269 944.07,540.0469 C1265.83,611.1969 1646.8357,657.8635 1834.6957,678.4435 " fill="#FFFFFF" fill-opacity="0.00000" id="ScrollableText-to-SparseArrayT" style="stroke:#E7E7E7;stroke-width:1;stroke-dasharray:1.0,3.0;"/><polygon fill="#E7E7E7" points="1840.66,679.0969,1832.1491,674.1406,1835.6897,678.5524,1831.2779,682.093,1840.66,679.0969" style="stroke:#E7E7E7;stroke-width:1;"/></g><!--link ServerId to SparseArrayT--><g id="link_ServerId_SparseArrayT"><path codeLine="194" d="M830.21,396.8569 C844,422.3069 866.69,457.2269 896.07,478.0469 C975.81,534.5669 1011.92,517.6669 1107.07,540.0469 C1367.32,601.2469 1671.7945,649.7092 1834.9845,673.8392 " fill="#FFFFFF" fill-opacity="0.00000" id="ServerId-to-SparseArrayT" style="stroke:#E7E7E7;stroke-width:1;stroke-dasharray:1.0,3.0;"/><polygon fill="#E7E7E7" points="1840.92,674.7169,1832.6019,669.4434,1835.9738,673.9855,1831.4317,677.3574,1840.92,674.7169" style="stroke:#E7E7E7;stroke-width:1;"/></g><!--link ComponentEntityType_Client to SparseArrayT--><g id="link_ComponentEntityType_Client_SparseArrayT"><path codeLine="195" d="M3143.84,396.9169 C3117.55,421.3869 3078.57,454.9269 3040.07,478.0469 C2977.87,515.3869 2958.89,520.3569 2889.07,540.0469 C2599.06,621.7869 2251.1219,663.1873 2073.3919,680.4373 " fill="#FFFFFF" fill-opacity="0.00000" id="ComponentEntityType_Client-to-SparseArrayT" style="stroke:#E7E7E7;stroke-width:1;stroke-dasharray:1.0,3.0;"/><polygon fill="#E7E7E7" points="2067.42,681.0169,2076.7643,684.1287,2072.3966,680.5339,2075.9915,676.1662,2067.42,681.0169" style="stroke:#E7E7E7;stroke-width:1;"/></g><!--link Drawable to SparseArrayT--><g id="link_Drawable_SparseArrayT"><path codeLine="196" d="M2094.84,421.3569 C2060.57,486.9569 2007.4173,588.6884 1977.4173,646.1384 " fill="#FFFFFF" fill-opacity="0.00000" id="Drawable-to-SparseArrayT" style="stroke:#E7E7E7;stroke-width:1;stroke-dasharray:1.0,3.0;"/><polygon fill="#E7E7E7" points="1974.64,651.4569,1982.3516,645.3306,1976.9544,647.0248,1975.2603,641.6276,1974.64,651.4569" style="stroke:#E7E7E7;stroke-width:1;"/></g><!--link ComponentEntityType_Server to SparseArrayT--><g id="link_ComponentEntityType_Server_SparseArrayT"><path codeLine="197" d="M3412.45,405.1769 C3386.59,430.0569 3350.16,460.5869 3312.07,478.0469 C3089.56,580.0069 2357.7254,654.6439 2073.2554,680.4939 " fill="#FFFFFF" fill-opacity="0.00000" id="ComponentEntityType_Server-to-SparseArrayT" style="stroke:#E7E7E7;stroke-width:1;stroke-dasharray:1.0,3.0;"/><polygon fill="#E7E7E7" points="2067.28,681.0369,2076.6051,684.206,2072.2595,680.5844,2075.8811,676.2388,2067.28,681.0369" style="stroke:#E7E7E7;stroke-width:1;"/></g><!--link NetworkId to SparseArrayT--><g id="link_NetworkId_SparseArrayT"><path codeLine="198" d="M2262.8,396.7469 C2249.04,420.3469 2228.42,452.8369 2206.07,478.0469 C2145.95,545.8469 2068.6797,607.5532 2014.7597,647.5332 " fill="#FFFFFF" fill-opacity="0.00000" id="NetworkId-to-SparseArrayT" style="stroke:#E7E7E7;stroke-width:1;stroke-dasharray:1.0,3.0;"/><polygon fill="#E7E7E7" points="2009.94,651.1069,2019.5519,648.9595,2013.9564,648.1288,2014.7871,642.5333,2009.94,651.1069" style="stroke:#E7E7E7;stroke-width:1;"/></g><!--link ClientInputs to SparseArrayT--><g id="link_ClientInputs_SparseArrayT"><path codeLine="199" d="M3712.79,396.9369 C3666.7,438.3469 3578.93,509.3969 3489.07,540.0469 C3355.38,585.6469 2405.2741,658.0705 2073.2741,682.2805 " fill="#FFFFFF" fill-opacity="0.00000" id="ClientInputs-to-SparseArrayT" style="stroke:#E7E7E7;stroke-width:1;stroke-dasharray:1.0,3.0;"/><polygon fill="#E7E7E7" points="2067.29,682.7169,2076.5571,686.0517,2072.2768,682.3532,2075.9753,678.0729,2067.29,682.7169" style="stroke:#E7E7E7;stroke-width:1;"/></g><!--link ArtificialIntelligence to SparseArrayT--><g id="link_ArtificialIntelligence_SparseArrayT"><path codeLine="200" d="M2771.24,141.3469 C2782.26,158.8269 2794.4,181.5169 2800.07,203.7769 C2805.43,224.8769 2863.98,365.8369 2787.07,478.0469 C2705.85,596.5469 2281.7345,656.4951 2073.3745,679.2651 " fill="#FFFFFF" fill-opacity="0.00000" id="ArtificialIntelligence-to-SparseArrayT" style="stroke:#E7E7E7;stroke-width:1;stroke-dasharray:1.0,3.0;"/><polygon fill="#E7E7E7" points="2067.41,679.9169,2076.7913,682.9155,2072.3804,679.3737,2075.9222,674.9628,2067.41,679.9169" style="stroke:#E7E7E7;stroke-width:1;"/></g><!--link Bonus to SparseArrayT--><g id="link_Bonus_SparseArrayT"><path codeLine="201" d="M2920.8,445.5369 C2904.69,479.8269 2881.01,517.1769 2848.07,540.0469 C2723.29,626.6569 2284.5144,667.9442 2073.1644,683.2242 " fill="#FFFFFF" fill-opacity="0.00000" id="Bonus-to-SparseArrayT" style="stroke:#E7E7E7;stroke-width:1;stroke-dasharray:1.0,3.0;"/><polygon fill="#E7E7E7" points="2067.18,683.6569,2076.445,686.9975,2072.167,683.2963,2075.8681,679.0183,2067.18,683.6569" style="stroke:#E7E7E7;stroke-width:1;"/></g><!--link ComponentEntityType_Client to EntityType--><g id="link_ComponentEntityType_Client_EntityType"><path codeLine="204" d="M3202.59,396.9069 C3240.53,441.9669 3308.0754,522.1973 3364.4754,589.1773 " fill="#FFFFFF" fill-opacity="0.00000" id="ComponentEntityType_Client-to-EntityType" style="stroke:#E7E7E7;stroke-width:1;"/><polygon fill="#E7E7E7" points="3368.34,593.7669,3365.6028,584.306,3365.1195,589.9422,3359.4833,589.4589,3368.34,593.7669" style="stroke:#E7E7E7;stroke-width:1;"/><text fill="#FFFFFF" font-family="sans-serif" font-size="13" lengthAdjust="spacing" textLength="29.7832" x="3322.07" y="528.6138">uses</text></g><!--link ComponentEntityType_Server to EntityType--><g id="link_ComponentEntityType_Server_EntityType"><path codeLine="205" d="M3450.07,404.9869 C3450.07,445.8069 3450.07,505.5269 3450.07,563.6669 " fill="#FFFFFF" fill-opacity="0.00000" id="ComponentEntityType_Server-to-EntityType" style="stroke:#E7E7E7;stroke-width:1;"/><polygon fill="#E7E7E7" points="3450.07,569.6669,3454.07,560.6669,3450.07,564.6669,3446.07,560.6669,3450.07,569.6669" style="stroke:#E7E7E7;stroke-width:1;"/><text fill="#FFFFFF" font-family="sans-serif" font-size="13" lengthAdjust="spacing" textLength="29.7832" x="3451.07" y="528.6138">uses</text></g><!--link ClientInputs to InputKey--><g id="link_ClientInputs_InputKey"><path codeLine="206" d="M3746.07,396.9069 C3746.07,447.7869 3746.07,543.3669 3746.07,612.7069 " fill="#FFFFFF" fill-opacity="0.00000" id="ClientInputs-to-InputKey" style="stroke:#E7E7E7;stroke-width:1;"/><polygon fill="#E7E7E7" points="3746.07,618.7069,3750.07,609.7069,3746.07,613.7069,3742.07,609.7069,3746.07,618.7069" style="stroke:#E7E7E7;stroke-width:1;"/><text fill="#FFFFFF" font-family="sans-serif" font-size="13" lengthAdjust="spacing" textLength="29.7832" x="3747.07" y="528.6138">uses</text></g><!--link SpawnEntityPacket to EntityType--><g id="link_SpawnEntityPacket_EntityType"><path codeLine="209" d="M3920.55,467.6369 C3915.23,471.4769 3909.73,474.9869 3904.07,478.0469 C3826.15,520.1469 3789.16,474.8069 3707.07,508.0469 C3642.99,533.9869 3584.2705,575.018 3536.4805,613.768 " fill="#FFFFFF" fill-opacity="0.00000" id="SpawnEntityPacket-to-EntityType" style="stroke:#E7E7E7;stroke-width:1;"/><polygon fill="#E7E7E7" points="3531.82,617.5469,3541.33,614.9855,3535.7037,614.3978,3536.2914,608.7716,3531.82,617.5469" style="stroke:#E7E7E7;stroke-width:1;"/><text fill="#FFFFFF" font-family="sans-serif" font-size="13" lengthAdjust="spacing" textLength="29.0405" x="3708.07" y="528.6138">type</text></g><!--link SpawnEntityPacket to Vector2f--><g id="link_SpawnEntityPacket_Vector2f"><path codeLine="210" d="M4020.86,478.1769 C4025.33,499.0669 4030.97,520.4669 4038.07,540.0469 C4052.51,579.9069 4073.4353,616.7107 4092.1353,646.1807 " fill="#FFFFFF" fill-opacity="0.00000" id="SpawnEntityPacket-to-Vector2f" style="stroke:#E7E7E7;stroke-width:1;"/><polygon fill="#E7E7E7" points="4095.35,651.2469,4093.9054,641.5045,4092.6711,647.0251,4087.1505,645.7908,4095.35,651.2469" style="stroke:#E7E7E7;stroke-width:1;"/><text fill="#FFFFFF" font-family="sans-serif" font-size="13" lengthAdjust="spacing" textLength="144.0347" x="4039.07" y="528.6138">position, size, velocity</text></g><!--link EntityPositionVelocityPacket to Vector2f--><g id="link_EntityPositionVelocityPacket_Vector2f"><path codeLine="211" d="M4223.03,429.4869 C4213.67,462.7869 4201.28,503.9569 4188.07,540.0469 C4174.02,578.4169 4157.5996,615.5262 4143.6096,645.6162 " fill="#FFFFFF" fill-opacity="0.00000" id="EntityPositionVelocityPacket-to-Vector2f" style="stroke:#E7E7E7;stroke-width:1;"/><polygon fill="#E7E7E7" points="4141.08,651.0569,4148.5015,644.5822,4143.188,646.523,4141.2473,641.2094,4141.08,651.0569" style="stroke:#E7E7E7;stroke-width:1;"/><text fill="#FFFFFF" font-family="sans-serif" font-size="13" lengthAdjust="spacing" textLength="110.5635" x="4198.07" y="528.6138">position, velocity</text></g><!--link INetworkServer to SpawnEntityPacket--><g id="link_INetworkServer_SpawnEntityPacket"><path codeLine="214" d="M4120.12,165.4269 C4088.02,177.5869 4061.27,190.7369 4049.07,203.7769 C4036.69,217.0069 4029.8507,227.7704 4023.3907,244.9604 " fill="#FFFFFF" fill-opacity="0.00000" id="INetworkServer-to-SpawnEntityPacket" style="stroke:#E7E7E7;stroke-width:1;stroke-dasharray:7.0,7.0;"/><polygon fill="#E7E7E7" points="4021.28,250.5769,4028.1903,243.5592,4023.0389,245.8965,4020.7017,240.745,4021.28,250.5769" style="stroke:#E7E7E7;stroke-width:1;"/><text fill="#FFFFFF" font-family="sans-serif" font-size="13" lengthAdjust="spacing" textLength="91.6982" x="4050.07" y="216.8438">send / receive</text></g><!--link INetworkClient to SpawnEntityPacket--><g id="link_INetworkClient_SpawnEntityPacket"><path codeLine="215" d="M3916.73,165.9669 C3915.06,183.7369 3915.26,203.3069 3920.07,220.7769 C3922.82,230.7869 3924.0922,235.2925 3928.3522,245.1125 " fill="#FFFFFF" fill-opacity="0.00000" id="INetworkClient-to-SpawnEntityPacket" style="stroke:#E7E7E7;stroke-width:1;stroke-dasharray:7.0,7.0;"/><polygon fill="#E7E7E7" points="3930.74,250.6169,3930.8278,240.7684,3928.7501,246.0299,3923.4886,243.9522,3930.74,250.6169" style="stroke:#E7E7E7;stroke-width:1;"/><text fill="#FFFFFF" font-family="sans-serif" font-size="13" lengthAdjust="spacing" textLength="91.6982" x="3921.07" y="216.8438">send / receive</text></g><!--link INetworkServer to EntityPositionVelocityPacket--><g id="link_INetworkServer_EntityPositionVelocityPacket"><path codeLine="216" d="M4298.38,173.9769 C4286.56,212.3869 4273.3361,255.3527 4261.5061,293.7627 " fill="#FFFFFF" fill-opacity="0.00000" id="INetworkServer-to-EntityPositionVelocityPacket" style="stroke:#E7E7E7;stroke-width:1;stroke-dasharray:7.0,7.0;"/><polygon fill="#E7E7E7" points="4259.74,299.4969,4266.2119,292.073,4261.2117,294.7184,4258.5663,289.7182,4259.74,299.4969" style="stroke:#E7E7E7;stroke-width:1;"/><text fill="#FFFFFF" font-family="sans-serif" font-size="13" lengthAdjust="spacing" textLength="91.6982" x="4289.07" y="216.8438">send / receive</text></g><!--link INetworkClient to EntityPositionVelocityPacket--><g id="link_INetworkClient_EntityPositionVelocityPacket"><path codeLine="217" d="M4076.87,164.5269 C4108.88,178.1369 4137.03,192.1469 4150.07,203.7769 C4179.03,229.6169 4198.3092,261.6421 4213.1892,293.7821 " fill="#FFFFFF" fill-opacity="0.00000" id="INetworkClient-to-EntityPositionVelocityPacket" style="stroke:#E7E7E7;stroke-width:1;stroke-dasharray:7.0,7.0;"/><polygon fill="#E7E7E7" points="4215.71,299.2269,4215.5587,289.3792,4213.6093,294.6896,4208.299,292.7402,4215.71,299.2269" style="stroke:#E7E7E7;stroke-width:1;"/><text fill="#FFFFFF" font-family="sans-serif" font-size="13" lengthAdjust="spacing" textLength="91.6982" x="4164.07" y="216.8438">send / receive</text></g><!--link ArtificialIntelligence to Registry--><g id="link_ArtificialIntelligence_Registry"><path codeLine="220" d="M2719.85,141.3569 C2705.65,158.4869 2689.79,180.8569 2681.07,203.7769 C2666.25,242.6969 2663.2619,284.5969 2663.3619,317.7169 " fill="#FFFFFF" fill-opacity="0.00000" id="ArtificialIntelligence-to-Registry" style="stroke:#E7E7E7;stroke-width:1;stroke-dasharray:7.0,7.0;"/><polygon fill="#E7E7E7" points="2663.38,323.7169,2667.3528,314.7048,2663.3649,318.7169,2659.3528,314.729,2663.38,323.7169" style="stroke:#E7E7E7;stroke-width:1;"/><text fill="#FFFFFF" font-family="sans-serif" font-size="13" lengthAdjust="spacing" textLength="113.9785" x="2682.07" y="216.8438">executes logic on</text></g><!--SRC=[jLXRZzeu57xFhx3oi0KjGpljxcg5kYDbcBI3oW0YcLQZPHM5n80rnevY0yEk-j_tsBav3A6TfSi3-7BEv-DpD-AHi2HCmpKISaynVASaafOeboCQ2k58M9vl91v4d7daRupUM9Oa4XZSljT1avHB7d7QGI6BqGZB7KyVqNYBqot1EyjwXIx-wmTuuGZKvoa-2qRV0qtnai0Lz-WV2m4OVDdTBbg7B5nYWK9AKSJN2MUOIJ5ZwZ9YBoHU2zJjsjPNAuUnFL2Em4wQXllt_fMDGe6C9J-3pz5zz0UePLyX8xbFS07ugfBfuk8AhJTKaWJqMZ_1AediInjnHMc_wNP7TltO7hBpkynOwn8bE3qujMsVQum-9GgiNwe9jV1Jk0QHHVk768Z5EFNnawnqADMi1wuPzthAFzbonXQSIUs8FKIOd34YRj9m5ywfMfbpJWrhzJdb1YIo8xK0T7h38BpZ6u6LrofYZs_0_3a74KuaoJQKECxnPom2Tvc7qMCXscB3W8QpzrjEuXP8rRwQCQ5G1ZUPcAPCb4IFIjoQN2SH2nVugNtL97CbhbffqCGXCSExlgcG6LXW4O8VzXlKDCNHSLNEs8x4SbNOP8N9SYMVNNt0aaqbgPeeQNoTJMfMFkGnXJRyf8UKWnZ4NfHoIW-Lswr5i0Uf2QU3oi1nUJPuLL0pLU7gBeEKj_SXZ88y2d9c7SyzLEqRtALR5hGWqYR5XKjKAbjG7ffAo-THo88OC4nZdXV1sTN_jmW-fgxyo2PrGPYGM2rvy6FeBYya1rRQWDekVmiEeWaEr4uYQfuLFEAzA2ox1R_bwNjDzWdlpIXoKaaM928X7J29AILBpABIPYJyHaHsJDUfXUSrPvjC9CmswsoghgoN41g1fZfwT1Ek8MzdOpzL9S1RSGdJhvsYL5MgAs4WyHrptFCSfAZcgELX2Zg3dEV9T1CflptJHRGI2WDe7ToDFxl1_QHJ36_6NqRbPEX-yCl9TF3nLi-ys_5O3qRNmM0qkVUzu9FxuAcBQ_pAiVG9aw7pu4uxvIYulXyENGtWZjoxX-33yA6Q-Cxeap6xdqvDqehrUknvmQthJCkP-ltY38VPV7IljuV-RJM_SUwSZsurzwU3oT0Du3v-AVoGp-TxJqAbqSAF9wvMnuVx37Wm2ZuwTngZFnnxRkLfdxLtlrrejgSYWS1uNuwhx9U4EvQfQGBr1fUP3EkruD2fPink3Dry9-62gCY0tKAISazaXVhP-XPJ7W7GiRqL3cbHIenuoeNE3_kS0xpi4gT4FIBI3uYeeYDMoILTX14MPm6I0WRS8KCs4kpFQCM5R2KybKQoREkTY7A1MzbuYQL3wPZ6MCXCV_c6WDBQYh82Lm5qK98fkPvCrVRlWRogM06qzGrIqEVpAnWb5GJbZ05NYoJrbW2a-8vxDLtgssATMLbNV8TIJ4FbNM95alFC3CoNRGJwD6irz0Dehjvfy22A8JWE7WgmeckfNE7oOM4PpTB5dp6NaD7_WXV4uTEXnBIjgcLkOh2EDCkDjFLkz_iWJw3LkjX6CjscDkvcNUZfxTFu1srcCrtHQfwuK6E7sSXJzfKlGitpH2DFrN6TicNLQpLIDJHKZVHPdzIu3Q7mjcs6GOeNE0L8o0aeAVeLLK35IMq2hj4TWC-3mmdxfAgQM6fg0AAogob9GEXtRPJNfWN1DAxBpI58K_MF2xHMmdfUavyVBVNRuZXbMVzxLOM3lXHANmSLLSssJjRFPfWA02xrIxiiQ6KQpnAJohAlKnnXiiLvlH3MGOtgTg-Ez1yg_G0pUeroTjiwA0mlvZFEEtdhxplwfH2Wfr_RoCqULZta3F9_af1wv2lhbzcv8LJKeUM_Fd00ViBHHeAYAL-I275c_mi0]--></g></svg>